<svg version="1.1" viewBox="0.0 0.0 121.98162729658793 101.50918635170603" fill="none" stroke="none" stroke-linecap="square" stroke-miterlimit="10" xmlns:xlink="http://www.w3.org/1999/xlink" xmlns="http://www.w3.org/2000/svg"><clipPath id="p.0"><path d="m0 0l121.98163 0l0 101.509186l-121.98163 0l0 -101.509186z" clip-rule="nonzero"/></clipPath><g clip-path="url(#p.0)"><path fill="#000000" fill-opacity="0.0" d="m0 0l121.98163 0l0 101.509186l-121.98163 0z" fill-rule="evenodd"/><path fill="#f3f3f3" d="m10.785617 39.79239l0 0c-0.9633894 -4.7560616 2.1996098 -9.464272 8.146819 -12.126766c5.9472103 -2.6624966 13.635618 -2.8123302 19.802752 -0.3859234l0 0c2.1845856 -2.7653713 6.1830177 -4.6746693 10.785847 -5.1503677c4.602829 -0.47569847 9.269432 0.5380726 12.588257 2.7346706l0 0c1.8609886 -2.5072632 5.515068 -4.191824 9.665581 -4.4559116c4.1505203 -0.26408958 8.210068 0.92967033 10.738121 3.157669l0 0c3.3621445 -2.657692 8.711395 -3.7766914 13.733116 -2.8728008c5.0217133 0.9038925 8.813942 3.6683273 9.735764 7.0971184l0 0c4.1192017 0.754797 7.5504074 2.6735878 9.4071045 5.26062c1.8566971 2.5870323 1.9567566 5.588524 0.27431488 8.228985l0 0c4.0562057 3.5464287 5.0050583 8.271999 2.4924545 12.413216c-2.5126038 4.14122 -8.109169 7.0759087 -14.701164 7.7089005c-0.046463013 3.8866844 -3.2194977 7.4530525 -8.296089 9.324474c-5.076584 1.8714294 -11.264 1.7556839 -16.17733 -0.30262756c-2.0928192 4.654976 -7.9834137 8.080055 -15.126816 8.795494c-7.143406 0.7154312 -14.259033 -1.4070435 -18.272667 -5.450432c-4.919876 1.9929962 -10.8233185 2.5671158 -16.378628 1.5928497c-5.5553093 -0.9742737 -10.294535 -3.4148636 -13.148603 -6.7712326l0 0c-5.0274954 0.3952179 -9.888388 -1.354599 -12.170235 -4.381027c-2.281847 -3.0264244 -1.4988978 -6.6852074 1.9602733 -9.160507l0 0c-4.484656 -1.7731857 -6.7729974 -5.2917747 -5.671745 -8.720963c1.1012527 -3.429184 5.342552 -5.9919014 10.512226 -6.351795z" fill-rule="evenodd"/><path fill="#000000" fill-opacity="0.0" d="m5.8457565 55.04845l0 0c2.1163225 0.8367729 4.5611715 1.2163506 7.0062857 1.0877762m3.2025747 12.45406c1.0514889 -0.08265686 2.0821476 -0.25769806 3.0653973 -0.520607m26.460365 5.6987686c-0.73955154 -0.74502563 -1.358738 -1.5411606 -1.8470154 -2.3748245m35.24777 -0.97036743l0 0c0.38155365 -0.84867096 0.6287689 -1.7221375 0.7375183 -2.6058273m23.734985 -6.415695c0.049468994 -4.137974 -3.4491272 -7.9267426 -8.993034 -9.738918m21.201622 -10.382763c-0.8978119 1.4090576 -2.2684326 2.6590118 -4.004387 3.651863m-5.6761856 -17.141836l0 0c0.15297699 0.5690079 0.22377014 1.1465702 0.21141052 1.724678m-23.679901 -5.948826l0 0c-0.8386841 0.66296196 -1.5296555 1.4038143 -2.0513916 2.1994877m-18.352497 -0.90153503l0 0c-0.446949 0.6021633 -0.7807007 1.239357 -0.9935684 1.8968983m-22.380878 0.5188503l0 0c1.3049622 0.5134258 2.51223 1.1313896 3.5952797 1.8403149m-31.544487 10.6724415l0 0c0.13278008 0.65550995 0.3425789 1.3029366 0.6274338 1.9362221" fill-rule="evenodd"/><path stroke="#efefef" stroke-width="1.0" stroke-linejoin="round" stroke-linecap="butt" d="m10.785617 39.79239l0 0c-0.9633894 -4.7560616 2.1996098 -9.464272 8.146819 -12.126766c5.9472103 -2.6624966 13.635618 -2.8123302 19.802752 -0.3859234l0 0c2.1845856 -2.7653713 6.1830177 -4.6746693 10.785847 -5.1503677c4.602829 -0.47569847 9.269432 0.5380726 12.588257 2.7346706l0 0c1.8609886 -2.5072632 5.515068 -4.191824 9.665581 -4.4559116c4.1505203 -0.26408958 8.210068 0.92967033 10.738121 3.157669l0 0c3.3621445 -2.657692 8.711395 -3.7766914 13.733116 -2.8728008c5.0217133 0.9038925 8.813942 3.6683273 9.735764 7.0971184l0 0c4.1192017 0.754797 7.5504074 2.6735878 9.4071045 5.26062c1.8566971 2.5870323 1.9567566 5.588524 0.27431488 8.228985l0 0c4.0562057 3.5464287 5.0050583 8.271999 2.4924545 12.413216c-2.5126038 4.14122 -8.109169 7.0759087 -14.701164 7.7089005c-0.046463013 3.8866844 -3.2194977 7.4530525 -8.296089 9.324474c-5.076584 1.8714294 -11.264 1.7556839 -16.17733 -0.30262756c-2.0928192 4.654976 -7.9834137 8.080055 -15.126816 8.795494c-7.143406 0.7154312 -14.259033 -1.4070435 -18.272667 -5.450432c-4.919876 1.9929962 -10.8233185 2.5671158 -16.378628 1.5928497c-5.5553093 -0.9742737 -10.294535 -3.4148636 -13.148603 -6.7712326l0 0c-5.0274954 0.3952179 -9.888388 -1.354599 -12.170235 -4.381027c-2.281847 -3.0264244 -1.4988978 -6.6852074 1.9602733 -9.160507l0 0c-4.484656 -1.7731857 -6.7729974 -5.2917747 -5.671745 -8.720963c1.1012527 -3.429184 5.342552 -5.9919014 10.512226 -6.351795z" fill-rule="evenodd"/><path stroke="#efefef" stroke-width="1.0" stroke-linejoin="round" stroke-linecap="butt" d="m5.8457565 55.04845l0 0c2.1163225 0.8367729 4.5611715 1.2163506 7.0062857 1.0877762m3.2025747 12.45406c1.0514889 -0.08265686 2.0821476 -0.25769806 3.0653973 -0.520607m26.460365 5.6987686c-0.73955154 -0.74502563 -1.358738 -1.5411606 -1.8470154 -2.3748245m35.24777 -0.97036743l0 0c0.38155365 -0.84867096 0.6287689 -1.7221375 0.7375183 -2.6058273m23.734985 -6.415695c0.049468994 -4.137974 -3.4491272 -7.9267426 -8.993034 -9.738918m21.201622 -10.382763c-0.8978119 1.4090576 -2.2684326 2.6590118 -4.004387 3.651863m-5.6761856 -17.141836l0 0c0.15297699 0.5690079 0.22377014 1.1465702 0.21141052 1.724678m-23.679901 -5.948826l0 0c-0.8386841 0.66296196 -1.5296555 1.4038143 -2.0513916 2.1994877m-18.352497 -0.90153503l0 0c-0.446949 0.6021633 -0.7807007 1.239357 -0.9935684 1.8968983m-22.380878 0.5188503l0 0c1.3049622 0.5134258 2.51223 1.1313896 3.5952797 1.8403149m-31.544487 10.6724415l0 0c0.13278008 0.65550995 0.3425789 1.3029366 0.6274338 1.9362221" fill-rule="evenodd"/></g></svg>